<svg width="62" height="62" viewBox="0 0 62 62" fill="none" xmlns="http://www.w3.org/2000/svg">
<g opacity="0.21">
<mask id="path-1-outside-1_3362_6026" maskUnits="userSpaceOnUse" x="0" y="0" width="62" height="62" fill="black">
<rect fill="white" width="62" height="62"/>
<path fill-rule="evenodd" clip-rule="evenodd" d="M1 31V38C1 50.7025 11.2975 61 24 61H31H38C50.7025 61 61 50.7025 61 38V31V24C61 11.2975 50.7025 1 38 1H31H24C11.2975 1 1 11.2975 1 24V31Z"/>
</mask>
<path fill-rule="evenodd" clip-rule="evenodd" d="M1 31V38C1 50.7025 11.2975 61 24 61H31H38C50.7025 61 61 50.7025 61 38V31V24C61 11.2975 50.7025 1 38 1H31H24C11.2975 1 1 11.2975 1 24V31Z" fill="#4AD991"/>
<path d="M2 38V31H0V38H2ZM24 60C11.8497 60 2 50.1503 2 38H0C0 51.2548 10.7452 62 24 62V60ZM31 60H24V62H31V60ZM38 60H31V62H38V60ZM60 38C60 50.1503 50.1503 60 38 60V62C51.2548 62 62 51.2548 62 38H60ZM60 31V38H62V31H60ZM60 24V31H62V24H60ZM38 2C50.1503 2 60 11.8497 60 24H62C62 10.7452 51.2548 0 38 0V2ZM31 2H38V0H31V2ZM24 2H31V0H24V2ZM2 24C2 11.8497 11.8497 2 24 2V0C10.7452 0 0 10.7452 0 24H2ZM2 31V24H0V31H2Z" fill="#DCDCDC" mask="url(#path-1-outside-1_3362_6026)"/>
</g>
<path d="M20.1111 41.8889H43.4444C44.3036 41.8889 45 42.5853 45 43.4444C45 44.3036 44.3036 45 43.4444 45H18.5556C17.6964 45 17 44.3036 17 43.4444V18.5556C17 17.6964 17.6964 17 18.5556 17C19.4147 17 20.1111 17.6964 20.1111 18.5556V41.8889Z" fill="#00FF19"/>
<path opacity="0.5" d="M25.9091 35.176C25.3216 35.8027 24.3372 35.8345 23.7104 35.2469C23.0836 34.6593 23.0519 33.6749 23.6395 33.0481L29.4728 26.8259C30.0411 26.2198 30.9854 26.1672 31.6174 26.7065L36.2214 30.6353L42.22 23.037C42.7524 22.3627 43.7306 22.2477 44.4049 22.78C45.0792 23.3123 45.1942 24.2905 44.6619 24.9648L37.6619 33.8315C37.1152 34.524 36.1024 34.6237 35.4312 34.0509L30.7272 30.0367L25.9091 35.176Z" fill="#00FF19"/>
</svg>
