<svg width="62" height="62" viewBox="0 0 62 62" fill="none" xmlns="http://www.w3.org/2000/svg">
<g opacity="0.21">
<mask id="path-1-outside-1_3362_6042" maskUnits="userSpaceOnUse" x="0" y="0" width="62" height="62" fill="black">
<rect fill="white" width="62" height="62"/>
<path fill-rule="evenodd" clip-rule="evenodd" d="M1 31V38C1 50.7025 11.2975 61 24 61H31H38C50.7025 61 61 50.7025 61 38V31V24C61 11.2975 50.7025 1 38 1H31H24C11.2975 1 1 11.2975 1 24V31Z"/>
</mask>
<path fill-rule="evenodd" clip-rule="evenodd" d="M1 31V38C1 50.7025 11.2975 61 24 61H31H38C50.7025 61 61 50.7025 61 38V31V24C61 11.2975 50.7025 1 38 1H31H24C11.2975 1 1 11.2975 1 24V31Z" fill="#FEC53D"/>
<path d="M2 38V31H0V38H2ZM24 60C11.8497 60 2 50.1503 2 38H0C0 51.2548 10.7452 62 24 62V60ZM31 60H24V62H31V60ZM38 60H31V62H38V60ZM60 38C60 50.1503 50.1503 60 38 60V62C51.2548 62 62 51.2548 62 38H60ZM60 31V38H62V31H60ZM60 24V31H62V24H60ZM38 2C50.1503 2 60 11.8497 60 24H62C62 10.7452 51.2548 0 38 0V2ZM31 2H38V0H31V2ZM24 2H31V0H24V2ZM2 24C2 11.8497 11.8497 2 24 2V0C10.7452 0 0 10.7452 0 24H2ZM2 31V24H0V31H2Z" fill="#DCDCDC" mask="url(#path-1-outside-1_3362_6042)"/>
</g>
<path fill-rule="evenodd" clip-rule="evenodd" d="M16 25.3164L28.9005 32.7645C29.0394 32.8447 29.1851 32.9026 29.3333 32.9394V47.3846L16.9201 40.0384C16.3498 39.701 16 39.0875 16 38.4248V25.3164ZM45.9974 25.1172V38.4236C45.9974 39.0863 45.6476 39.6997 45.0773 40.0372L32.6641 47.3834V32.8116C32.6943 32.7965 32.7243 32.7804 32.754 32.7633L45.9974 25.1172Z" fill="#FEC53D"/>
<path opacity="0.499209" fill-rule="evenodd" clip-rule="evenodd" d="M16.4062 21.7014C16.5638 21.5024 16.7627 21.3343 16.9946 21.2108L30.1196 14.2201C30.6706 13.9266 31.3315 13.9266 31.8825 14.2201L45.0075 21.2108C45.1862 21.306 45.3454 21.4277 45.4811 21.5697L31.0909 29.8778C30.9963 29.9325 30.9091 29.995 30.8296 30.064C30.75 29.995 30.6628 29.9325 30.5682 29.8778L16.4062 21.7014Z" fill="#FEC53D"/>
</svg>
