<svg width="62" height="62" viewBox="0 0 62 62" fill="none" xmlns="http://www.w3.org/2000/svg">
<g opacity="0.21">
<mask id="path-1-outside-1_3362_6060" maskUnits="userSpaceOnUse" x="0" y="0" width="62" height="62" fill="black">
<rect fill="white" width="62" height="62"/>
<path fill-rule="evenodd" clip-rule="evenodd" d="M1 31V38C1 50.7025 11.2975 61 24 61H31H38C50.7025 61 61 50.7025 61 38V31V24C61 11.2975 50.7025 1 38 1H31H24C11.2975 1 1 11.2975 1 24V31Z"/>
</mask>
<path fill-rule="evenodd" clip-rule="evenodd" d="M1 31V38C1 50.7025 11.2975 61 24 61H31H38C50.7025 61 61 50.7025 61 38V31V24C61 11.2975 50.7025 1 38 1H31H24C11.2975 1 1 11.2975 1 24V31Z" fill="#8280FF"/>
<path d="M2 38V31H0V38H2ZM24 60C11.8497 60 2 50.1503 2 38H0C0 51.2548 10.7452 62 24 62V60ZM31 60H24V62H31V60ZM38 60H31V62H38V60ZM60 38C60 50.1503 50.1503 60 38 60V62C51.2548 62 62 51.2548 62 38H60ZM60 31V38H62V31H60ZM60 24V31H62V24H60ZM38 2C50.1503 2 60 11.8497 60 24H62C62 10.7452 51.2548 0 38 0V2ZM31 2H38V0H31V2ZM24 2H31V0H24V2ZM2 24C2 11.8497 11.8497 2 24 2V0C10.7452 0 0 10.7452 0 24H2ZM2 31V24H0V31H2Z" fill="white" mask="url(#path-1-outside-1_3362_6060)"/>
</g>
<g opacity="0.587821">
<mask id="path-3-outside-2_3362_6060" maskUnits="userSpaceOnUse" x="20.6641" y="18" width="24" height="17" fill="black">
<rect fill="white" x="20.6641" y="18" width="24" height="17"/>
<path fill-rule="evenodd" clip-rule="evenodd" d="M21.6641 24.3333C21.6641 27.2789 24.0519 29.6667 26.9974 29.6667C29.9429 29.6667 32.3307 27.2789 32.3307 24.3333C32.3307 21.3878 29.9429 19 26.9974 19C24.0519 19 21.6641 21.3878 21.6641 24.3333ZM35 29.668C35 31.8771 36.7909 33.668 39 33.668C41.2091 33.668 43 31.8771 43 29.668C43 27.4588 41.2091 25.668 39 25.668C36.7909 25.668 35 27.4588 35 29.668Z"/>
</mask>
<path fill-rule="evenodd" clip-rule="evenodd" d="M21.6641 24.3333C21.6641 27.2789 24.0519 29.6667 26.9974 29.6667C29.9429 29.6667 32.3307 27.2789 32.3307 24.3333C32.3307 21.3878 29.9429 19 26.9974 19C24.0519 19 21.6641 21.3878 21.6641 24.3333ZM35 29.668C35 31.8771 36.7909 33.668 39 33.668C41.2091 33.668 43 31.8771 43 29.668C43 27.4588 41.2091 25.668 39 25.668C36.7909 25.668 35 27.4588 35 29.668Z" fill="#8280FF"/>
<path d="M26.9974 28.6667C24.6042 28.6667 22.6641 26.7266 22.6641 24.3333H20.6641C20.6641 27.8311 23.4996 30.6667 26.9974 30.6667V28.6667ZM31.3307 24.3333C31.3307 26.7266 29.3906 28.6667 26.9974 28.6667V30.6667C30.4952 30.6667 33.3307 27.8311 33.3307 24.3333H31.3307ZM26.9974 20C29.3906 20 31.3307 21.9401 31.3307 24.3333H33.3307C33.3307 20.8355 30.4952 18 26.9974 18V20ZM22.6641 24.3333C22.6641 21.9401 24.6042 20 26.9974 20V18C23.4996 18 20.6641 20.8355 20.6641 24.3333H22.6641ZM39 32.668C37.3431 32.668 36 31.3248 36 29.668H34C34 32.4294 36.2386 34.668 39 34.668V32.668ZM42 29.668C42 31.3248 40.6569 32.668 39 32.668V34.668C41.7614 34.668 44 32.4294 44 29.668H42ZM39 26.668C40.6569 26.668 42 28.0111 42 29.668H44C44 26.9065 41.7614 24.668 39 24.668V26.668ZM36 29.668C36 28.0111 37.3431 26.668 39 26.668V24.668C36.2386 24.668 34 26.9065 34 29.668H36Z" fill="white" mask="url(#path-3-outside-2_3362_6060)"/>
</g>
<mask id="path-5-outside-3_3362_6060" maskUnits="userSpaceOnUse" x="14" y="31.332" width="34" height="13" fill="black">
<rect fill="white" x="14" y="31.332" width="34" height="13"/>
<path fill-rule="evenodd" clip-rule="evenodd" d="M26.9778 32.332C20.6826 32.332 15.5177 35.5674 15.0009 41.931C14.9727 42.2776 15.6356 42.9987 15.97 42.9987H37.9956C38.9972 42.9987 39.0128 42.1927 38.9972 41.932C38.6065 35.3896 33.3616 32.332 26.9778 32.332ZM46.272 43H41.1354L41.1354 42.9974C41.1354 39.9974 40.1446 37.2287 38.4724 35.0009C43.0113 35.0527 46.7164 37.3492 46.9954 42.2C47.0066 42.3955 46.9954 43 46.272 43Z"/>
</mask>
<path fill-rule="evenodd" clip-rule="evenodd" d="M26.9778 32.332C20.6826 32.332 15.5177 35.5674 15.0009 41.931C14.9727 42.2776 15.6356 42.9987 15.97 42.9987H37.9956C38.9972 42.9987 39.0128 42.1927 38.9972 41.932C38.6065 35.3896 33.3616 32.332 26.9778 32.332ZM46.272 43H41.1354L41.1354 42.9974C41.1354 39.9974 40.1446 37.2287 38.4724 35.0009C43.0113 35.0527 46.7164 37.3492 46.9954 42.2C47.0066 42.3955 46.9954 43 46.272 43Z" fill="#8280FF"/>
<path d="M15.0009 41.931L14.0042 41.85L15.0009 41.931ZM38.9972 41.932L39.9954 41.8724V41.8724L38.9972 41.932ZM41.1354 43L40.1354 42.9993L40.1347 44H41.1354V43ZM41.1354 42.9974L42.1354 42.9981V42.9974H41.1354ZM38.4724 35.0009L38.4838 34.001L36.454 33.9778L37.6726 35.6012L38.4724 35.0009ZM46.9954 42.2L47.9937 42.1426V42.1426L46.9954 42.2ZM15.9976 42.0119C16.2333 39.1098 17.5133 36.9745 19.4218 35.5457C21.3523 34.1002 23.9915 33.332 26.9778 33.332V31.332C23.6688 31.332 20.578 32.1815 18.2231 33.9447C15.8461 35.7244 14.2853 38.3886 14.0042 41.85L15.9976 42.0119ZM15.97 41.9987C16.0044 41.9987 16.0349 42.001 16.0611 42.0043C16.0873 42.0075 16.11 42.0118 16.1289 42.0162C16.166 42.0248 16.1929 42.0346 16.2084 42.0409C16.2243 42.0474 16.2335 42.0523 16.2358 42.0536C16.2384 42.055 16.2367 42.0543 16.2311 42.0504C16.2255 42.0467 16.2173 42.0409 16.2068 42.0327C16.1964 42.0246 16.1845 42.0147 16.1714 42.0031C16.1449 41.9797 16.1164 41.9517 16.0882 41.9208C16.06 41.8899 16.0348 41.859 16.0137 41.8302C16.0033 41.816 15.9945 41.8031 15.9873 41.7919C15.98 41.7805 15.9748 41.7716 15.9714 41.7655C15.968 41.7592 15.9672 41.7571 15.9682 41.7593C15.969 41.7612 15.9728 41.7701 15.9774 41.7854C15.982 41.8004 15.9889 41.8264 15.9939 41.862C15.9988 41.8974 16.0027 41.9486 15.9976 42.0119L14.0042 41.85C13.9731 42.2329 14.1244 42.5557 14.2153 42.7226C14.325 42.9238 14.4669 43.1112 14.6107 43.2688C14.7545 43.4264 14.9274 43.5841 15.116 43.7108C15.2686 43.8133 15.58 43.9987 15.97 43.9987V41.9987ZM37.9956 41.9987H15.97V43.9987H37.9956V41.9987ZM37.999 41.9916C37.9997 42.004 38.0002 42.0183 37.9999 42.0337C37.9996 42.0494 37.9986 42.064 37.9969 42.0768C37.9951 42.0898 37.9932 42.0974 37.9924 42.1001C37.9917 42.1026 37.993 42.097 37.9991 42.0858C38.0055 42.074 38.0167 42.0569 38.0341 42.0388C38.0426 42.0299 38.0518 42.0216 38.0614 42.0141C38.071 42.0066 38.08 42.0008 38.0879 41.9964C38.0957 41.992 38.1013 41.9897 38.1038 41.9887C38.1062 41.9878 38.1048 41.9885 38.0988 41.9899C38.0864 41.9928 38.054 41.9987 37.9956 41.9987V43.9987C38.3806 43.9987 38.7454 43.9206 39.0658 43.741C39.3909 43.5587 39.6136 43.3036 39.7566 43.0404C40.0216 42.5524 40.0061 42.0512 39.9954 41.8724L37.999 41.9916ZM26.9778 33.332C30.0238 33.332 32.7041 34.0631 34.6437 35.4851C36.5533 36.8852 37.8208 39.007 37.999 41.9916L39.9954 41.8724C39.783 38.3146 38.2327 35.6365 35.8262 33.8722C33.4497 32.1298 30.3156 31.332 26.9778 31.332V33.332ZM41.1354 44H46.272V42H41.1354V44ZM40.1354 42.9967L40.1354 42.9993L42.1354 43.0007L42.1354 42.9981L40.1354 42.9967ZM37.6726 35.6012C39.2193 37.6619 40.1354 40.2212 40.1354 42.9974H42.1354C42.1354 39.7735 41.0699 36.7956 39.2721 34.4006L37.6726 35.6012ZM47.9937 42.1426C47.8388 39.4481 46.716 37.3865 44.9447 36.011C43.199 34.6554 40.9069 34.0286 38.4838 34.001L38.4609 36.0008C40.5767 36.025 42.4067 36.5724 43.718 37.5907C45.0038 38.5891 45.873 40.1012 45.997 42.2574L47.9937 42.1426ZM46.272 44C46.5936 44 46.9111 43.9319 47.1949 43.7667C47.4819 43.5996 47.6743 43.368 47.7953 43.1368C48.017 42.713 48.002 42.2858 47.9937 42.1426L45.997 42.2574C45.9973 42.2623 45.9975 42.2673 45.9974 42.2722C45.9973 42.2746 45.9972 42.2766 45.9971 42.2781C45.997 42.2797 45.9969 42.2805 45.9969 42.2805C45.9969 42.2804 45.9971 42.2792 45.9976 42.2768C45.9981 42.2744 45.999 42.2703 46.0005 42.2647C46.0036 42.2541 46.0101 42.2347 46.0231 42.2098C46.0522 42.1541 46.1069 42.0859 46.1887 42.0383C46.2672 41.9925 46.3121 42 46.272 42V44Z" fill="white" mask="url(#path-5-outside-3_3362_6060)"/>
</svg>
