<svg width="62" height="62" viewBox="0 0 62 62" fill="none" xmlns="http://www.w3.org/2000/svg">
<g opacity="0.3">
<mask id="path-1-outside-1_3362_6007" maskUnits="userSpaceOnUse" x="0" y="0" width="62" height="62" fill="black">
<rect fill="white" width="62" height="62"/>
<path fill-rule="evenodd" clip-rule="evenodd" d="M1 31V38C1 50.7025 11.2975 61 24 61H31H38C50.7025 61 61 50.7025 61 38V31V24C61 11.2975 50.7025 1 38 1H31H24C11.2975 1 1 11.2975 1 24V31Z"/>
</mask>
<path fill-rule="evenodd" clip-rule="evenodd" d="M1 31V38C1 50.7025 11.2975 61 24 61H31H38C50.7025 61 61 50.7025 61 38V31V24C61 11.2975 50.7025 1 38 1H31H24C11.2975 1 1 11.2975 1 24V31Z" fill="#FF9066"/>
<path d="M2 38V31H0V38H2ZM24 60C11.8497 60 2 50.1503 2 38H0C0 51.2548 10.7452 62 24 62V60ZM31 60H24V62H31V60ZM38 60H31V62H38V60ZM60 38C60 50.1503 50.1503 60 38 60V62C51.2548 62 62 51.2548 62 38H60ZM60 31V38H62V31H60ZM60 24V31H62V24H60ZM38 2C50.1503 2 60 11.8497 60 24H62C62 10.7452 51.2548 0 38 0V2ZM31 2H38V0H31V2ZM24 2H31V0H24V2ZM2 24C2 11.8497 11.8497 2 24 2V0C10.7452 0 0 10.7452 0 24H2ZM2 31V24H0V31H2Z" fill="#DCDCDC" mask="url(#path-1-outside-1_3362_6007)"/>
</g>
<path opacity="0.78" fill-rule="evenodd" clip-rule="evenodd" d="M29.6299 24.8093C29.65 24.5488 29.8672 24.3477 30.1285 24.3477H30.5463C30.8032 24.3477 31.0183 24.5423 31.0438 24.7979L31.6655 31.0143L36.0802 33.537C36.236 33.626 36.3321 33.7917 36.3321 33.9712V34.3597C36.3321 34.6894 36.0186 34.9288 35.7006 34.8421L29.3974 33.123C29.1661 33.0599 29.0121 32.8414 29.0305 32.6023L29.6299 24.8093Z" fill="#FF9066"/>
<path opacity="0.901274" fill-rule="evenodd" clip-rule="evenodd" d="M23.7204 15.9846C23.4563 15.6698 22.9464 15.7903 22.851 16.19L21.2176 23.0381C21.1399 23.3638 21.398 23.6723 21.7322 23.6533L28.777 23.2541C29.1879 23.2308 29.3963 22.7488 29.1317 22.4335L27.3292 20.2853C28.4947 19.8867 29.7308 19.6785 31 19.6785C37.2592 19.6785 42.3333 24.7526 42.3333 31.0119C42.3333 37.2711 37.2592 42.3452 31 42.3452C24.7408 42.3452 19.6667 37.2711 19.6667 31.0119C19.6667 29.9611 19.809 28.932 20.0864 27.9428L17.5188 27.2226C17.1808 28.4278 17 29.6987 17 31.0119C17 38.7439 23.268 45.0119 31 45.0119C38.732 45.0119 45 38.7439 45 31.0119C45 23.2799 38.732 17.0119 31 17.0119C29.0542 17.0119 27.2012 17.4088 25.5174 18.1261L23.7204 15.9846Z" fill="#FF9066"/>
</svg>
